{
  "accessors": [
    {
      "bufferView": 2,
      "componentType": 5126,
      "count": 11285,
      "max": [
        0.9849382042884827,
        0.9213916659355164,
        0.9872307181358337
      ],
      "min": [
        -0.9849377870559692,
        -0.9786129593849182,
        0.06824424117803574
      ],
      "type": "VEC3"
    },
    {
      "bufferView": 2,
      "byteOffset": 135420,
      "componentType": 5126,
      "count": 11285,
      "max": [
        0.9999599456787109,
        0.9999945759773254,
        1.0
      ],
      "min": [
        -0.9999600648880005,
        -0.9999338984489441,
        -1.0
      ],
      "type": "VEC3"
    },
    {
      "bufferView": 1,
      "componentType": 5126,
      "count": 11285,
      "max": [
        0.4880411624908447,
        0.8751431703567505
      ],
      "min": [
        0.011958904564380646,
        0.06249993294477463
      ],
      "type": "VEC2"
    },
    {
      "bufferView": 0,
      "componentType": 5125,
      "count": 61104,
      "type": "SCALAR"
    },
    {
      "bufferView": 2,
      "byteOffset": 270840,
      "componentType": 5126,
      "count": 11643,
      "max": [
        0.9849383234977722,
        0.9213917255401611,
        -0.0682440921664238
      ],
      "min": [
        -0.9849377870559692,
        -0.9786128401756287,
        -0.9872304201126099
      ],
      "type": "VEC3"
    },
    {
      "bufferView": 2,
      "byteOffset": 410556,
      "componentType": 5126,
      "count": 11643,
      "max": [
        0.9999600052833557,
        0.9999946355819702,
        1.0
      ],
      "min": [
        -0.9999599456787109,
        -0.9999338388442993,
        -1.0
      ],
      "type": "VEC3"
    },
    {
      "bufferView": 1,
      "byteOffset": 90280,
      "componentType": 5126,
      "count": 11643,
      "max": [
        0.9880411624908447,
        0.8751431703567505
      ],
      "min": [
        0.5119588375091553,
        0.06249988079071045
      ],
      "type": "VEC2"
    },
    {
      "bufferView": 0,
      "byteOffset": 244416,
      "componentType": 5125,
      "count": 61104,
      "type": "SCALAR"
    },
    {
      "bufferView": 2,
      "byteOffset": 550272,
      "componentType": 5126,
      "count": 559,
      "max": [
        0.9372023940086365,
        0.9372026920318604,
        0.9372021555900574
      ],
      "min": [
        -0.9372017979621887,
        -0.9372026920318604,
        -0.9372015595436096
      ],
      "type": "VEC3"
    },
    {
      "bufferView": 2,
      "byteOffset": 556980,
      "componentType": 5126,
      "count": 559,
      "max": [
        1.0,
        1.0,
        1.0
      ],
      "min": [
        -1.0,
        -1.0,
        -1.0
      ],
      "type": "VEC3"
    },
    {
      "bufferView": 1,
      "byteOffset": 183424,
      "componentType": 5126,
      "count": 559,
      "max": [
        1.0000001192092896,
        1.0
      ],
      "min": [
        0.0,
        0.0
      ],
      "type": "VEC2"
    },
    {
      "bufferView": 0,
      "byteOffset": 488832,
      "componentType": 5125,
      "count": 2880,
      "type": "SCALAR"
    },
    {
      "bufferView": 2,
      "byteOffset": 563688,
      "componentType": 5126,
      "count": 13609,
      "max": [
        0.2689532935619354,
        0.9903279542922974,
        0.2689533233642578
      ],
      "min": [
        -0.2689531147480011,
        0.8948658108711243,
        -0.2689531743526459
      ],
      "type": "VEC3"
    },
    {
      "bufferView": 2,
      "byteOffset": 726996,
      "componentType": 5126,
      "count": 13609,
      "max": [
        1.0,
        1.0,
        1.0
      ],
      "min": [
        -1.0,
        -1.0,
        -1.0
      ],
      "type": "VEC3"
    },
    {
      "bufferView": 1,
      "byteOffset": 187896,
      "componentType": 5126,
      "count": 13609,
      "max": [
        1.000000238418579,
        0.9375004172325134
      ],
      "min": [
        5.960464477539063e-08,
        0.9062498807907104
      ],
      "type": "VEC2"
    },
    {
      "bufferView": 0,
      "byteOffset": 500352,
      "componentType": 5125,
      "count": 44544,
      "type": "SCALAR"
    },
    {
      "bufferView": 2,
      "byteOffset": 890304,
      "componentType": 5126,
      "count": 3370,
      "max": [
        0.26728329062461853,
        0.9617687463760376,
        0.2672833502292633
      ],
      "min": [
        -0.267283171415329,
        0.8945626616477966,
        -0.26728320121765137
      ],
      "type": "VEC3"
    },
    {
      "bufferView": 2,
      "byteOffset": 930744,
      "componentType": 5126,
      "count": 3370,
      "max": [
        0.7892236113548279,
        0.9926972389221191,
        0.7892155647277832
      ],
      "min": [
        -0.7891919016838074,
        -0.9918603897094727,
        -0.7892155051231384
      ],
      "type": "VEC3"
    },
    {
      "bufferView": 1,
      "byteOffset": 296768,
      "componentType": 5126,
      "count": 3370,
      "max": [
        1.000000238418579,
        0.9375002384185791
      ],
      "min": [
        6.123396190105268e-08,
        0.9062498807907104
      ],
      "type": "VEC2"
    },
    {
      "bufferView": 0,
      "byteOffset": 678528,
      "componentType": 5125,
      "count": 18432,
      "type": "SCALAR"
    },
    {
      "bufferView": 2,
      "byteOffset": 971184,
      "componentType": 5126,
      "count": 28,
      "max": [
        1.0,
        1.0797735452651978,
        1.0
      ],
      "min": [
        -1.0,
        0.0,
        -1.0
      ],
      "type": "VEC3"
    },
    {
      "bufferView": 2,
      "byteOffset": 971520,
      "componentType": 5126,
      "count": 28,
      "max": [
        0.0,
        1.0,
        1.0
      ],
      "min": [
        0.0,
        0.0,
        -0.0
      ],
      "type": "VEC3"
    },
    {
      "bufferView": 1,
      "byteOffset": 323728,
      "componentType": 5126,
      "count": 28,
      "max": [
        1.0,
        1.0
      ],
      "min": [
        0.0,
        0.0
      ],
      "type": "VEC2"
    },
    {
      "bufferView": 0,
      "byteOffset": 752256,
      "componentType": 5125,
      "count": 78,
      "type": "SCALAR"
    }
  ],
  "asset": {
    "extras": {
      "author": "Reece.Parkin (https://sketchfab.com/Reece.Parkin)",
      "license": "CC-BY-NC-4.0 (http://creativecommons.org/licenses/by-nc/4.0/)",
      "source": "https://sketchfab.com/3d-models/pokeball-3d-model-21b0cd823c394bfc9f949d3fda877084",
      "title": "Pokeball 3D model"
    },
    "generator": "Sketchfab-13.74.0",
    "version": "2.0"
  },
  "bufferViews": [
    {
      "buffer": 0,
      "byteLength": 752568,
      "name": "floatBufferViews",
      "target": 34963
    },
    {
      "buffer": 0,
      "byteLength": 323952,
      "byteOffset": 752568,
      "byteStride": 8,
      "name": "floatBufferViews",
      "target": 34962
    },
    {
      "buffer": 0,
      "byteLength": 971856,
      "byteOffset": 1076520,
      "byteStride": 12,
      "name": "floatBufferViews",
      "target": 34962
    }
  ],
  "buffers": [
    {
      "byteLength": 2048376,
      "uri": "scene.bin"
    }
  ],
  "materials": [
    {
      "doubleSided": true,
      "name": "white",
      "pbrMetallicRoughness": {
        "baseColorFactor": [
          0.8,
          0.8,
          0.8,
          1.0
        ],
        "metallicFactor": 0.0,
        "roughnessFactor": 0.006
      }
    },
    {
      "doubleSided": true,
      "name": "material",
      "pbrMetallicRoughness": {
        "baseColorFactor": [
          0.8,
          0.000690582,
          0.0,
          1.0
        ],
        "metallicFactor": 0.0,
        "roughnessFactor": 0.5
      }
    },
    {
      "doubleSided": true,
      "name": "black",
      "pbrMetallicRoughness": {
        "baseColorFactor": [
          0.0,
          0.0,
          0.0,
          1.0
        ],
        "metallicFactor": 0.0,
        "roughnessFactor": 0.5
      }
    },
    {
      "doubleSided": true,
      "name": "metallic",
      "pbrMetallicRoughness": {
        "baseColorFactor": [
          0.8,
          0.8,
          0.8,
          1.0
        ],
        "roughnessFactor": 0.5
      }
    },
    {
      "doubleSided": true,
      "emissiveFactor": [
        0.603819,
        0.603819,
        0.603819
      ],
      "name": "light",
      "pbrMetallicRoughness": {
        "baseColorFactor": [
          0.8,
          0.8,
          0.8,
          1.0
        ],
        "metallicFactor": 0.0,
        "roughnessFactor": 0.5
      }
    },
    {
      "doubleSided": true,
      "name": "Material.001",
      "pbrMetallicRoughness": {
        "baseColorFactor": [
          0.0,
          0.0,
          0.0,
          1.0
        ],
        "metallicFactor": 0.0
      }
    }
  ],
  "meshes": [
    {
      "name": "Object_0",
      "primitives": [
        {
          "attributes": {
            "NORMAL": 1,
            "POSITION": 0,
            "TEXCOORD_0": 2
          },
          "indices": 3,
          "material": 0,
          "mode": 4
        }
      ]
    },
    {
      "name": "Object_1",
      "primitives": [
        {
          "attributes": {
            "NORMAL": 5,
            "POSITION": 4,
            "TEXCOORD_0": 6
          },
          "indices": 7,
          "material": 1,
          "mode": 4
        }
      ]
    },
    {
      "name": "Object_2",
      "primitives": [
        {
          "attributes": {
            "NORMAL": 9,
            "POSITION": 8,
            "TEXCOORD_0": 10
          },
          "indices": 11,
          "material": 2,
          "mode": 4
        }
      ]
    },
    {
      "name": "Object_3",
      "primitives": [
        {
          "attributes": {
            "NORMAL": 13,
            "POSITION": 12,
            "TEXCOORD_0": 14
          },
          "indices": 15,
          "material": 3,
          "mode": 4
        }
      ]
    },
    {
      "name": "Object_4",
      "primitives": [
        {
          "attributes": {
            "NORMAL": 17,
            "POSITION": 16,
            "TEXCOORD_0": 18
          },
          "indices": 19,
          "material": 4,
          "mode": 4
        }
      ]
    },
    {
      "name": "Object_5",
      "primitives": [
        {
          "attributes": {
            "NORMAL": 21,
            "POSITION": 20,
            "TEXCOORD_0": 22
          },
          "indices": 23,
          "material": 5,
          "mode": 4
        }
      ]
    }
  ],
  "nodes": [
    {
      "children": [
        1
      ],
      "matrix": [
        1.0,
        0.0,
        0.0,
        0.0,
        0.0,
        2.220446049250313e-16,
        -1.0,
        0.0,
        0.0,
        1.0,
        2.220446049250313e-16,
        0.0,
        0.0,
        0.0,
        0.0,
        1.0
      ],
      "name": "Sketchfab_model"
    },
    {
      "children": [
        2
      ],
      "name": "root"
    },
    {
      "children": [
        3,
        6,
        8,
        11
      ],
      "matrix": [
        1.0,
        0.0,
        0.0,
        0.0,
        0.0,
        2.220446049250313e-16,
        1.0,
        0.0,
        0.0,
        -1.0,
        2.220446049250313e-16,
        0.0,
        0.0,
        0.0,
        0.0,
        1.0
      ],
      "name": "GLTF_SceneRootNode"
    },
    {
      "children": [
        4,
        5
      ],
      "matrix": [
        1.0,
        0.0,
        0.0,
        0.0,
        0.0,
        0.0,
        1.0,
        0.0,
        0.0,
        -1.0,
        0.0,
        0.0,
        0.0,
        1.0,
        0.0,
        1.0
      ],
      "name": "Sphere_0"
    },
    {
      "mesh": 0,
      "name": "Object_4"
    },
    {
      "mesh": 1,
      "name": "Object_5"
    },
    {
      "children": [
        7
      ],
      "matrix": [
        1.0,
        0.0,
        0.0,
        0.0,
        0.0,
        0.0,
        1.0,
        0.0,
        0.0,
        -1.0,
        0.0,
        0.0,
        0.0,
        1.0,
        0.0,
        1.0
      ],
      "name": "Sphere.001_1"
    },
    {
      "mesh": 2,
      "name": "Object_7"
    },
    {
      "children": [
        9,
        10
      ],
      "matrix": [
        1.0,
        0.0,
        0.0,
        0.0,
        0.0,
        0.0,
        1.0,
        0.0,
        0.0,
        -1.0,
        0.0,
        0.0,
        0.0,
        1.0,
        0.0,
        1.0
      ],
      "name": "Sphere.002_2"
    },
    {
      "mesh": 3,
      "name": "Object_9"
    },
    {
      "mesh": 4,
      "name": "Object_10"
    },
    {
      "children": [
        12
      ],
      "matrix": [
        10.98019027709961,
        0.0,
        0.0,
        0.0,
        0.0,
        10.98019027709961,
        0.0,
        0.0,
        0.0,
        0.0,
        10.98019027709961,
        0.0,
        0.0,
        0.0,
        0.0,
        1.0
      ],
      "name": "Plane_3"
    },
    {
      "mesh": 5,
      "name": "Object_12"
    }
  ],
  "scene": 0,
  "scenes": [
    {
      "name": "Sketchfab_Scene",
      "nodes": [
        0
      ]
    }
  ]
}
