{
  "accessors": [
    {
      "bufferView": 1,
      "componentType": 5126,
      "count": 2106,
      "max": [
        53.310001373291016,
        -86.13839721679688,
        63.0
      ],
      "min": [
        -55.04800033569336,
        -126.80999755859375,
        -61.0
      ],
      "type": "VEC3"
    },
    {
      "bufferView": 1,
      "byteOffset": 25272,
      "componentType": 5126,
      "count": 2106,
      "max": [
        0.9999997615814209,
        0.9656331539154053,
        0.9997244477272034
      ],
      "min": [
        -0.9999997615814209,
        -0.9999997019767761,
        -0.9997243881225586
      ],
      "type": "VEC3"
    },
    {
      "bufferView": 0,
      "componentType": 5125,
      "count": 10389,
      "type": "SCALAR"
    },
    {
      "bufferView": 1,
      "byteOffset": 50544,
      "componentType": 5126,
      "count": 980,
      "max": [
        65.7322006225586,
        -0.0,
        68.7322006225586
      ],
      "min": [
        -69.7322006225586,
        -82.0,
        -73.0
      ],
      "type": "VEC3"
    },
    {
      "bufferView": 1,
      "byteOffset": 62304,
      "componentType": 5126,
      "count": 980,
      "max": [
        1.0,
        1.0,
        1.0
      ],
      "min": [
        -1.0,
        -1.0,
        -1.0
      ],
      "type": "VEC3"
    },
    {
      "bufferView": 0,
      "byteOffset": 41556,
      "componentType": 5125,
      "count": 4611,
      "type": "SCALAR"
    },
    {
      "bufferView": 1,
      "byteOffset": 74064,
      "componentType": 5126,
      "count": 1415,
      "max": [
        65.82589721679688,
        -72.0,
        68.82589721679688
      ],
      "min": [
        -69.82589721679688,
        -136.0,
        -65.42579650878906
      ],
      "type": "VEC3"
    },
    {
      "bufferView": 1,
      "byteOffset": 91044,
      "componentType": 5126,
      "count": 1415,
      "max": [
        0.9952537417411804,
        0.02229980193078518,
        0.9997513890266418
      ],
      "min": [
        -0.9952545166015625,
        -1.0,
        -0.9879474639892578
      ],
      "type": "VEC3"
    },
    {
      "bufferView": 0,
      "byteOffset": 60000,
      "componentType": 5125,
      "count": 5694,
      "type": "SCALAR"
    },
    {
      "bufferView": 1,
      "byteOffset": 108024,
      "componentType": 5126,
      "count": 792,
      "max": [
        68.0,
        -46.0,
        71.0
      ],
      "min": [
        -72.0,
        -86.0,
        -69.0
      ],
      "type": "VEC3"
    },
    {
      "bufferView": 1,
      "byteOffset": 117528,
      "componentType": 5126,
      "count": 792,
      "max": [
        1.0,
        1.0,
        0.9990378618240356
      ],
      "min": [
        -1.0,
        -1.0,
        -1.0
      ],
      "type": "VEC3"
    },
    {
      "bufferView": 0,
      "byteOffset": 82776,
      "componentType": 5125,
      "count": 2286,
      "type": "SCALAR"
    }
  ],
  "asset": {
    "extras": {
      "author": "TrungProex10 (https://sketchfab.com/TrungProex10)",
      "license": "CC-BY-4.0 (http://creativecommons.org/licenses/by/4.0/)",
      "source": "https://sketchfab.com/3d-models/great-ball-85bc559b13fe43d6ab41e8bb5a7fc98b",
      "title": "Great Ball"
    },
    "generator": "Sketchfab-13.78.0",
    "version": "2.0"
  },
  "bufferViews": [
    {
      "buffer": 0,
      "byteLength": 91920,
      "name": "floatBufferViews",
      "target": 34963
    },
    {
      "buffer": 0,
      "byteLength": 127032,
      "byteOffset": 91920,
      "byteStride": 12,
      "name": "floatBufferViews",
      "target": 34962
    }
  ],
  "buffers": [
    {
      "byteLength": 218952,
      "uri": "scene.bin"
    }
  ],
  "extensionsUsed": [
    "KHR_materials_clearcoat"
  ],
  "materials": [
    {
      "doubleSided": true,
      "name": "color_15277357",
      "pbrMetallicRoughness": {
        "baseColorFactor": [
          1.0,
          0.0,
          0.0,
          1.0
        ],
        "metallicFactor": 0.0,
        "roughnessFactor": 0.0
      }
    },
    {
      "doubleSided": true,
      "extensions": {
        "KHR_materials_clearcoat": {
          "clearcoatFactor": 1.0,
          "clearcoatRoughnessFactor": 0.04
        }
      },
      "name": "color_16448250",
      "pbrMetallicRoughness": {
        "baseColorFactor": [
          0.980392,
          0.980392,
          0.980392,
          1.0
        ],
        "metallicFactor": 0.0,
        "roughnessFactor": 0.0
      }
    },
    {
      "doubleSided": true,
      "name": "color_1791",
      "pbrMetallicRoughness": {
        "baseColorFactor": [
          0.0,
          0.009615739678686744,
          1.0,
          1.0
        ],
        "metallicFactor": 0.0,
        "roughnessFactor": 0.028690158369674198
      }
    },
    {
      "doubleSided": true,
      "name": "color_2829873",
      "pbrMetallicRoughness": {
        "baseColorFactor": [
          0.0,
          0.0,
          0.0,
          1.0
        ],
        "metallicFactor": 0.0,
        "roughnessFactor": 0.0
      }
    }
  ],
  "meshes": [
    {
      "name": "Object_0",
      "primitives": [
        {
          "attributes": {
            "NORMAL": 1,
            "POSITION": 0
          },
          "indices": 2,
          "material": 0,
          "mode": 4
        }
      ]
    },
    {
      "name": "Object_1",
      "primitives": [
        {
          "attributes": {
            "NORMAL": 4,
            "POSITION": 3
          },
          "indices": 5,
          "material": 1,
          "mode": 4
        }
      ]
    },
    {
      "name": "Object_2",
      "primitives": [
        {
          "attributes": {
            "NORMAL": 7,
            "POSITION": 6
          },
          "indices": 8,
          "material": 2,
          "mode": 4
        }
      ]
    },
    {
      "name": "Object_3",
      "primitives": [
        {
          "attributes": {
            "NORMAL": 10,
            "POSITION": 9
          },
          "indices": 11,
          "material": 3,
          "mode": 4
        }
      ]
    }
  ],
  "nodes": [
    {
      "children": [
        1
      ],
      "matrix": [
        1.0,
        5.369661687199837e-20,
        -4.973626588533522e-17,
        0.0,
        5.5628231428521394e-21,
        -0.9999995231628418,
        -0.0009677800699139372,
        0.0,
        -4.973629566383727e-17,
        0.0009677800699139372,
        -0.9999995231628418,
        0.0,
        0.0,
        0.0,
        0.0,
        1.0
      ],
      "name": "Sketchfab_model"
    },
    {
      "children": [
        2,
        3,
        4,
        5
      ],
      "name": "tinker.obj.cleaner.materialmerger.gles"
    },
    {
      "mesh": 0,
      "name": "Object_2"
    },
    {
      "mesh": 1,
      "name": "Object_3"
    },
    {
      "mesh": 2,
      "name": "Object_4"
    },
    {
      "mesh": 3,
      "name": "Object_5"
    }
  ],
  "scene": 0,
  "scenes": [
    {
      "name": "Sketchfab_Scene",
      "nodes": [
        0
      ]
    }
  ]
}
