{
  "accessors": [
    {
      "bufferView": 2,
      "componentType": 5126,
      "count": 44,
      "max": [
        0.11263067275285721,
        0.7978333234786987,
        0.32273250818252563
      ],
      "min": [
        -0.11200963705778122,
        -0.21836096048355103,
        -0.1686224341392517
      ],
      "type": "VEC3"
    },
    {
      "bufferView": 2,
      "byteOffset": 528,
      "componentType": 5126,
      "count": 44,
      "max": [
        1.0,
        1.0,
        0.9999973773956299
      ],
      "min": [
        -1.0,
        -1.0,
        -0.998093843460083
      ],
      "type": "VEC3"
    },
    {
      "bufferView": 1,
      "componentType": 5126,
      "count": 44,
      "max": [
        0.17855525016784668,
        0.5960373878479004
      ],
      "min": [
        0.019737452268600464,
        0.496334046125412
      ],
      "type": "VEC2"
    },
    {
      "bufferView": 0,
      "componentType": 5125,
      "count": 66,
      "type": "SCALAR"
    },
    {
      "bufferView": 2,
      "byteOffset": 1056,
      "componentType": 5126,
      "count": 856,
      "max": [
        0.1146567091345787,
        0.8000735640525818,
        0.32471203804016113
      ],
      "min": [
        -0.11420196294784546,
        -0.22150112688541412,
        -0.16939851641654968
      ],
      "type": "VEC3"
    },
    {
      "bufferView": 2,
      "byteOffset": 11328,
      "componentType": 5126,
      "count": 856,
      "max": [
        1.0,
        1.0,
        1.0
      ],
      "min": [
        -1.0,
        -1.0,
        -1.0
      ],
      "type": "VEC3"
    },
    {
      "bufferView": 1,
      "byteOffset": 352,
      "componentType": 5126,
      "count": 856,
      "max": [
        0.17855525016784668,
        0.5960373878479004
      ],
      "min": [
        0.019737452268600464,
        0.496334046125412
      ],
      "type": "VEC2"
    },
    {
      "bufferView": 0,
      "byteOffset": 264,
      "componentType": 5125,
      "count": 1266,
      "type": "SCALAR"
    },
    {
      "bufferView": 2,
      "byteOffset": 21600,
      "componentType": 5126,
      "count": 56,
      "max": [
        0.449889600276947,
        0.4395148754119873,
        0.7144650220870972
      ],
      "min": [
        -0.449889600276947,
        -0.2540404796600342,
        -0.779245138168335
      ],
      "type": "VEC3"
    },
    {
      "bufferView": 2,
      "byteOffset": 22272,
      "componentType": 5126,
      "count": 56,
      "max": [
        0.9903614521026611,
        0.9550843834877014,
        0.7692800164222717
      ],
      "min": [
        -0.9903614521026611,
        -1.0,
        -1.0
      ],
      "type": "VEC3"
    },
    {
      "bufferView": 1,
      "byteOffset": 7200,
      "componentType": 5126,
      "count": 56,
      "max": [
        0.3945945203304291,
        0.87673419713974
      ],
      "min": [
        0.0864279642701149,
        0.6636145114898682
      ],
      "type": "VEC2"
    },
    {
      "bufferView": 0,
      "byteOffset": 5328,
      "componentType": 5125,
      "count": 96,
      "type": "SCALAR"
    },
    {
      "bufferView": 2,
      "byteOffset": 22944,
      "componentType": 5126,
      "count": 1016,
      "max": [
        0.4546155035495758,
        0.44351789355278015,
        0.7197852730751038
      ],
      "min": [
        -0.4546155035495758,
        -0.25863680243492126,
        -0.7836909890174866
      ],
      "type": "VEC3"
    },
    {
      "bufferView": 2,
      "byteOffset": 35136,
      "componentType": 5126,
      "count": 1016,
      "max": [
        0.9996873140335083,
        1.0,
        1.0
      ],
      "min": [
        -0.9996873140335083,
        -0.9942381978034973,
        -0.99526047706604
      ],
      "type": "VEC3"
    },
    {
      "bufferView": 1,
      "byteOffset": 7648,
      "componentType": 5126,
      "count": 1016,
      "max": [
        0.3945945203304291,
        0.87673419713974
      ],
      "min": [
        0.0864279642701149,
        0.6636145114898682
      ],
      "type": "VEC2"
    },
    {
      "bufferView": 0,
      "byteOffset": 5712,
      "componentType": 5125,
      "count": 1536,
      "type": "SCALAR"
    },
    {
      "bufferView": 2,
      "byteOffset": 47328,
      "componentType": 5126,
      "count": 200,
      "max": [
        0.2879011034965515,
        0.3439863920211792,
        0.7188452482223511
      ],
      "min": [
        -0.28783169388771057,
        -0.27002930641174316,
        -0.5069595575332642
      ],
      "type": "VEC3"
    },
    {
      "bufferView": 2,
      "byteOffset": 49728,
      "componentType": 5126,
      "count": 200,
      "max": [
        0.9993712306022644,
        0.9946162104606628,
        0.9998824596405029
      ],
      "min": [
        -0.9993712306022644,
        -0.9999829530715942,
        -0.9998883605003357
      ],
      "type": "VEC3"
    },
    {
      "bufferView": 1,
      "byteOffset": 15776,
      "componentType": 5126,
      "count": 200,
      "max": [
        0.9269487261772156,
        0.9903385043144226
      ],
      "min": [
        0.06295230984687805,
        0.28784430027008057
      ],
      "type": "VEC2"
    },
    {
      "bufferView": 0,
      "byteOffset": 11856,
      "componentType": 5125,
      "count": 420,
      "type": "SCALAR"
    },
    {
      "bufferView": 2,
      "byteOffset": 52128,
      "componentType": 5126,
      "count": 3400,
      "max": [
        0.2899126410484314,
        0.34684979915618896,
        0.7207878828048706
      ],
      "min": [
        -0.28984323143959045,
        -0.27287545800209045,
        -0.5090750455856323
      ],
      "type": "VEC3"
    },
    {
      "bufferView": 2,
      "byteOffset": 92928,
      "componentType": 5126,
      "count": 3400,
      "max": [
        0.9993712306022644,
        0.9999829530715942,
        0.9999144673347473
      ],
      "min": [
        -0.9993712306022644,
        -0.999956488609314,
        -0.9999144673347473
      ],
      "type": "VEC3"
    },
    {
      "bufferView": 1,
      "byteOffset": 17376,
      "componentType": 5126,
      "count": 3400,
      "max": [
        0.9269487261772156,
        0.9903385043144226
      ],
      "min": [
        0.06295230984687805,
        0.28784430027008057
      ],
      "type": "VEC2"
    },
    {
      "bufferView": 0,
      "byteOffset": 13536,
      "componentType": 5125,
      "count": 5220,
      "type": "SCALAR"
    },
    {
      "bufferView": 2,
      "byteOffset": 133728,
      "componentType": 5126,
      "count": 90,
      "max": [
        0.34459957480430603,
        0.212228924036026,
        1.060283899307251
      ],
      "min": [
        -0.5214517116546631,
        -0.26501479744911194,
        -0.9397162199020386
      ],
      "type": "VEC3"
    },
    {
      "bufferView": 2,
      "byteOffset": 134808,
      "componentType": 5126,
      "count": 90,
      "max": [
        1.0,
        1.0,
        0.9999569058418274
      ],
      "min": [
        -0.9980152249336243,
        -0.9958999752998352,
        -0.939116895198822
      ],
      "type": "VEC3"
    },
    {
      "bufferView": 1,
      "byteOffset": 44576,
      "componentType": 5126,
      "count": 90,
      "max": [
        0.1418401598930359,
        0.8490879535675049
      ],
      "min": [
        0.019051849842071533,
        0.7238302230834961
      ],
      "type": "VEC2"
    },
    {
      "bufferView": 0,
      "byteOffset": 34416,
      "componentType": 5125,
      "count": 138,
      "type": "SCALAR"
    },
    {
      "bufferView": 2,
      "byteOffset": 135888,
      "componentType": 5126,
      "count": 1426,
      "max": [
        0.3495446741580963,
        0.2194950431585312,
        1.0650666952133179
      ],
      "min": [
        -0.526370108127594,
        -0.2693944573402405,
        -0.9397162199020386
      ],
      "type": "VEC3"
    },
    {
      "bufferView": 2,
      "byteOffset": 153000,
      "componentType": 5126,
      "count": 1426,
      "max": [
        0.9999733567237854,
        0.9998744130134583,
        0.9987967610359192
      ],
      "min": [
        -1.0,
        -1.0,
        -0.9999569058418274
      ],
      "type": "VEC3"
    },
    {
      "bufferView": 1,
      "byteOffset": 45296,
      "componentType": 5126,
      "count": 1426,
      "max": [
        0.1418401598930359,
        0.8490879535675049
      ],
      "min": [
        0.019051849842071533,
        0.7238302230834961
      ],
      "type": "VEC2"
    },
    {
      "bufferView": 0,
      "byteOffset": 34968,
      "componentType": 5125,
      "count": 2082,
      "type": "SCALAR"
    },
    {
      "bufferView": 2,
      "byteOffset": 170112,
      "componentType": 5126,
      "count": 90,
      "max": [
        0.34459957480430603,
        0.212228924036026,
        1.060283899307251
      ],
      "min": [
        -0.5214517116546631,
        -0.26501479744911194,
        -0.9397162199020386
      ],
      "type": "VEC3"
    },
    {
      "bufferView": 2,
      "byteOffset": 171192,
      "componentType": 5126,
      "count": 90,
      "max": [
        1.0,
        1.0,
        0.9999569058418274
      ],
      "min": [
        -0.9980152249336243,
        -0.9958999752998352,
        -0.939116895198822
      ],
      "type": "VEC3"
    },
    {
      "bufferView": 1,
      "byteOffset": 56704,
      "componentType": 5126,
      "count": 90,
      "max": [
        0.1418401598930359,
        0.8490879535675049
      ],
      "min": [
        0.019051849842071533,
        0.7238302230834961
      ],
      "type": "VEC2"
    },
    {
      "bufferView": 0,
      "byteOffset": 43296,
      "componentType": 5125,
      "count": 138,
      "type": "SCALAR"
    },
    {
      "bufferView": 2,
      "byteOffset": 172272,
      "componentType": 5126,
      "count": 1426,
      "max": [
        0.3495446741580963,
        0.2194950431585312,
        1.0650666952133179
      ],
      "min": [
        -0.526370108127594,
        -0.2693944573402405,
        -0.9397162199020386
      ],
      "type": "VEC3"
    },
    {
      "bufferView": 2,
      "byteOffset": 189384,
      "componentType": 5126,
      "count": 1426,
      "max": [
        0.9999733567237854,
        0.9998744130134583,
        0.9987967610359192
      ],
      "min": [
        -1.0,
        -1.0,
        -0.9999569058418274
      ],
      "type": "VEC3"
    },
    {
      "bufferView": 1,
      "byteOffset": 57424,
      "componentType": 5126,
      "count": 1426,
      "max": [
        0.1418401598930359,
        0.8490879535675049
      ],
      "min": [
        0.019051849842071533,
        0.7238302230834961
      ],
      "type": "VEC2"
    },
    {
      "bufferView": 0,
      "byteOffset": 43848,
      "componentType": 5125,
      "count": 2082,
      "type": "SCALAR"
    }
  ],
  "asset": {
    "extras": {
      "author": "fran.senes (https://sketchfab.com/franse_art)",
      "license": "CC-BY-4.0 (http://creativecommons.org/licenses/by/4.0/)",
      "source": "https://sketchfab.com/3d-models/porygon-50a9815af4cb4d72ae7dc22c88d531b1",
      "title": "Porygon"
    },
    "generator": "Sketchfab-12.82.2",
    "version": "2.0"
  },
  "bufferViews": [
    {
      "buffer": 0,
      "byteLength": 52176,
      "name": "floatBufferViews",
      "target": 34963
    },
    {
      "buffer": 0,
      "byteLength": 68832,
      "byteOffset": 52176,
      "byteStride": 8,
      "name": "floatBufferViews",
      "target": 34962
    },
    {
      "buffer": 0,
      "byteLength": 206496,
      "byteOffset": 121008,
      "byteStride": 12,
      "name": "floatBufferViews",
      "target": 34962
    }
  ],
  "buffers": [
    {
      "byteLength": 327504,
      "uri": "scene.bin"
    }
  ],
  "images": [
    {
      "uri": "textures/Material.001_baseColor.png"
    }
  ],
  "materials": [
    {
      "doubleSided": true,
      "name": "Material.001",
      "pbrMetallicRoughness": {
        "baseColorTexture": {
          "index": 0
        }
      }
    },
    {
      "name": "OH_Outline_Material",
      "pbrMetallicRoughness": {
        "baseColorFactor": [
          0.0038175729,
          0.0,
          0.0,
          1.0
        ]
      }
    }
  ],
  "meshes": [
    {
      "name": "Object_0",
      "primitives": [
        {
          "attributes": {
            "NORMAL": 1,
            "POSITION": 0,
            "TEXCOORD_0": 2
          },
          "indices": 3,
          "material": 0,
          "mode": 4
        }
      ]
    },
    {
      "name": "Object_1",
      "primitives": [
        {
          "attributes": {
            "NORMAL": 5,
            "POSITION": 4,
            "TEXCOORD_0": 6
          },
          "indices": 7,
          "material": 1,
          "mode": 4
        }
      ]
    },
    {
      "name": "Object_2",
      "primitives": [
        {
          "attributes": {
            "NORMAL": 9,
            "POSITION": 8,
            "TEXCOORD_0": 10
          },
          "indices": 11,
          "material": 0,
          "mode": 4
        }
      ]
    },
    {
      "name": "Object_3",
      "primitives": [
        {
          "attributes": {
            "NORMAL": 13,
            "POSITION": 12,
            "TEXCOORD_0": 14
          },
          "indices": 15,
          "material": 1,
          "mode": 4
        }
      ]
    },
    {
      "name": "Object_4",
      "primitives": [
        {
          "attributes": {
            "NORMAL": 17,
            "POSITION": 16,
            "TEXCOORD_0": 18
          },
          "indices": 19,
          "material": 0,
          "mode": 4
        }
      ]
    },
    {
      "name": "Object_5",
      "primitives": [
        {
          "attributes": {
            "NORMAL": 21,
            "POSITION": 20,
            "TEXCOORD_0": 22
          },
          "indices": 23,
          "material": 1,
          "mode": 4
        }
      ]
    },
    {
      "name": "Object_6",
      "primitives": [
        {
          "attributes": {
            "NORMAL": 25,
            "POSITION": 24,
            "TEXCOORD_0": 26
          },
          "indices": 27,
          "material": 0,
          "mode": 4
        }
      ]
    },
    {
      "name": "Object_7",
      "primitives": [
        {
          "attributes": {
            "NORMAL": 29,
            "POSITION": 28,
            "TEXCOORD_0": 30
          },
          "indices": 31,
          "material": 1,
          "mode": 4
        }
      ]
    },
    {
      "name": "Object_8",
      "primitives": [
        {
          "attributes": {
            "NORMAL": 33,
            "POSITION": 32,
            "TEXCOORD_0": 34
          },
          "indices": 35,
          "material": 0,
          "mode": 4
        }
      ]
    },
    {
      "name": "Object_9",
      "primitives": [
        {
          "attributes": {
            "NORMAL": 37,
            "POSITION": 36,
            "TEXCOORD_0": 38
          },
          "indices": 39,
          "material": 1,
          "mode": 4
        }
      ]
    }
  ],
  "nodes": [
    {
      "children": [
        1
      ],
      "matrix": [
        1.0,
        0.0,
        0.0,
        0.0,
        0.0,
        2.220446049250313e-16,
        -1.0,
        0.0,
        0.0,
        1.0,
        2.220446049250313e-16,
        0.0,
        0.0,
        0.0,
        0.0,
        1.0
      ],
      "name": "Sketchfab_model"
    },
    {
      "children": [
        2
      ],
      "name": "root"
    },
    {
      "children": [
        3,
        6,
        9,
        12,
        15
      ],
      "matrix": [
        1.0,
        0.0,
        0.0,
        0.0,
        0.0,
        2.220446049250313e-16,
        1.0,
        0.0,
        0.0,
        -1.0,
        2.220446049250313e-16,
        0.0,
        0.0,
        0.0,
        0.0,
        1.0
      ],
      "name": "GLTF_SceneRootNode"
    },
    {
      "children": [
        4,
        5
      ],
      "matrix": [
        1.0,
        0.0,
        0.0,
        0.0,
        0.0,
        1.0,
        0.0,
        0.0,
        0.0,
        0.0,
        1.0,
        0.0,
        0.17267441749572754,
        0.0,
        -0.8816878795623779,
        1.0
      ],
      "name": "Cube.002_0"
    },
    {
      "mesh": 0,
      "name": "Object_4"
    },
    {
      "mesh": 1,
      "name": "Object_5"
    },
    {
      "children": [
        7,
        8
      ],
      "matrix": [
        1.0,
        0.0,
        0.0,
        0.0,
        0.0,
        1.0,
        0.0,
        0.0,
        0.0,
        0.0,
        1.0,
        0.0,
        0.17267441749572754,
        0.0,
        0.003660687245428562,
        1.0
      ],
      "name": "Cube.004_1"
    },
    {
      "mesh": 2,
      "name": "Object_7"
    },
    {
      "mesh": 3,
      "name": "Object_8"
    },
    {
      "children": [
        10,
        11
      ],
      "matrix": [
        1.0,
        0.0,
        0.0,
        0.0,
        0.0,
        1.0,
        0.0,
        0.0,
        0.0,
        0.0,
        1.0,
        0.0,
        0.17267441749572754,
        0.700421929359436,
        0.41289132833480835,
        1.0
      ],
      "name": "Plane.004_2"
    },
    {
      "mesh": 4,
      "name": "Object_10"
    },
    {
      "mesh": 5,
      "name": "Object_11"
    },
    {
      "children": [
        13,
        14
      ],
      "matrix": [
        0.0,
        -0.7805399894714355,
        0.0,
        0.0,
        0.7805402874946594,
        0.0,
        0.0,
        0.0,
        0.0,
        -0.0,
        0.780540406703949,
        0.0,
        0.5813040733337402,
        -0.26579397916793823,
        0.14076602458953857,
        1.0
      ],
      "name": "Plane.005_3"
    },
    {
      "mesh": 6,
      "name": "Object_13"
    },
    {
      "mesh": 7,
      "name": "Object_14"
    },
    {
      "children": [
        16,
        17
      ],
      "matrix": [
        0.0,
        -0.7669479846954346,
        0.0,
        0.0,
        0.7669480443000793,
        0.0,
        0.0,
        0.0,
        0.0,
        -0.0,
        0.7669479846954346,
        0.0,
        -0.32696282863616943,
        -0.26579397916793823,
        0.14076602458953857,
        1.0
      ],
      "name": "Plane.006_4"
    },
    {
      "mesh": 8,
      "name": "Object_16"
    },
    {
      "mesh": 9,
      "name": "Object_17"
    }
  ],
  "samplers": [
    {
      "magFilter": 9728,
      "minFilter": 9728,
      "wrapS": 33071,
      "wrapT": 33071
    }
  ],
  "scene": 0,
  "scenes": [
    {
      "name": "Sketchfab_Scene",
      "nodes": [
        0
      ]
    }
  ],
  "textures": [
    {
      "sampler": 0,
      "source": 0
    }
  ]
}
